<?xml version="1.0" standalone="no"?>
<!DOCTYPE svg PUBLIC "-//W3C//DTD SVG 20010904//EN"
 "http://www.w3.org/TR/2001/REC-SVG-20010904/DTD/svg10.dtd">
<svg version="1.0" xmlns="http://www.w3.org/2000/svg"
 width="210.000000pt" height="210.000000pt" viewBox="0 0 210.000000 210.000000"
 preserveAspectRatio="xMidYMid meet">

<g transform="translate(0.000000,210.000000) scale(0.100000,-0.100000)"
fill="#FFFFFF" stroke="none">
<path d="M955 2094 c-170 -25 -282 -59 -401 -123 -276 -149 -474 -421 -535
-732 -16 -82 -16 -296 0 -378 83 -426 416 -759 842 -842 82 -16 296 -16 378 0
426 83 759 416 842 842 16 82 16 296 0 378 -82 419 -404 748 -821 837 -68 14
-254 25 -305 18z m85 -854 c80 -116 148 -210 153 -210 4 0 7 95 7 210 l0 210
125 0 125 0 0 -400 0 -400 -122 0 -123 1 -145 209 c-80 116 -148 210 -152 210
-5 0 -8 -94 -8 -210 l0 -210 -125 0 -125 0 0 400 0 400 123 0 122 -1 145 -209z"/>
</g>
</svg>
